PathFileType	4	(X/Y/Z)	C:\Users\WrightLab\Desktop\Jo\P4V18.trc
DataRate	CameraRate	NumFrames	NumMarkers	Units	OrigDataRate	OrigDataStartFrame	OrigNumFrames
100.00	100.00	       21	19	mm	100.00	1	       502
Frame#	Time	Headset_Front			Headset_Back			Headset_Left			Headset_Right			Left_Shoulder			Right_Shoulder			Sternum			C7			Left Elbow			Right Elbow			Left Wrist			Right Wrist			Left ASIS			Right ASIS			S2			Left Knee			Right Knee			Left Ankle			Right Ankle			
		X1	Y1	Z1	X2	Y2	Z2	X3	Y3	Z3	X4	Y4	Z4	X5	Y5	Z5	X6	Y6	Z6	X7	Y7	Z7	X8	Y8	Z8	X9	Y9	Z9	X10	Y10	Z10	X11	Y11	Z11	X12	Y12	Z12	X13	Y13	Z13	X14	Y14	Z14	X15	Y15	Z15	X16	Y16	Z16	X17	Y17	Z17	X18	Y18	Z18	X19	Y19	Z19	

1	0.000				-374.32278	1062.05676	2203.95166										-85.69190	1577.29968	2303.08447	-240.97342	1851.97021	2222.57153	-244.40672	1621.59656	2314.91870	-43.25352	1099.01746	2246.05811	-256.74545	1109.32043	2403.11499																-372.36209	584.45868	2306.52808	24.80985	633.18744	2201.23877	-353.72592	109.28708	2495.08813	40.54517	119.99963	2197.82642	
2	0.010				-370.98853	1060.97168	2199.72485										-82.05957	1576.57275	2298.40771	-236.88321	1850.84814	2218.45264	-241.01556	1620.82092	2310.18018	-40.63433	1098.21765	2242.16138	-253.75317	1108.99060	2399.32935																-369.99536	584.11365	2303.71216	29.22594	633.83600	2197.86133	-353.53387	109.38811	2494.77368	47.58546	120.10199	2187.00439	
3	0.020				-367.48367	1059.83313	2195.47656										-78.91204	1575.66870	2294.69751	-233.10413	1850.19482	2214.57202	-237.62343	1620.06750	2305.71973	-37.60514	1097.68787	2237.74390	-251.49771	1108.02161	2394.54565																-368.14853	583.85980	2301.26782	33.18461	633.10480	2192.36841	-353.16693	109.35653	2494.12524	54.98779	120.11494	2175.98706	
4	0.030				-364.06024	1059.22913	2189.36450										-75.08910	1575.02905	2289.59766	-229.12268	1849.40503	2210.86963	-234.09805	1619.12476	2301.12207	-33.86458	1096.91699	2233.41455	-248.48987	1107.42737	2389.87305																-365.45441	583.69385	2298.63452	36.95882	632.37463	2189.45337	-353.08835	109.64535	2494.24146	62.14175	119.94750	2165.44824	
5	0.040				-360.41852	1057.81213	2183.96143										-71.70791	1573.97705	2285.40820	-224.91634	1848.30664	2206.42065	-230.47632	1618.23218	2296.70703	-30.42633	1095.56458	2229.18188	-244.81380	1106.51807	2385.30933																-362.99838	583.29755	2295.71240	41.50657	631.42896	2186.54272	-352.77902	109.62667	2493.96460	69.10057	119.74194	2155.14844	
6	0.050				-356.67667	1056.80664	2180.07031										-67.59730	1573.05725	2280.25928	-220.35873	1847.25110	2201.87085	-226.36446	1617.24878	2291.42163	-26.97756	1094.83655	2225.33691	-242.13579	1105.09180	2379.75537																-360.67743	582.56873	2293.06055	45.77369	631.30634	2182.71533	-352.80295	110.40030	2494.19531	77.11733	119.78548	2146.19556	
7	0.060				-352.74704	1055.88049	2173.76685										-63.67224	1571.88550	2275.66357	-215.76640	1846.51025	2196.94556	-222.25645	1615.84656	2286.33691	-22.62436	1093.40283	2221.00854	-238.58496	1105.35168	2375.15942																-357.86990	582.17670	2290.03467	49.89097	630.00690	2177.54834	-352.46262	110.46354	2494.01563	83.60588	119.38253	2136.38452	
8	0.070				-348.92352	1054.56323	2169.67188										-59.92298	1570.93384	2271.26953	-211.62914	1845.06360	2192.62622	-218.48624	1615.00549	2281.37964	-19.03426	1092.35388	2216.11328	-235.49533	1104.10181	2370.52051							95.18139	1228.70483	2244.15137							-355.60040	581.78827	2286.70093	53.92102	630.06653	2171.83472	-352.36588	111.13960	2493.73535	90.78201	119.71207	2128.58105	
9	0.080				-344.58502	1053.35913	2164.24683										-55.44923	1569.71265	2266.26904	-207.32335	1844.77649	2188.11890	-213.96341	1613.65356	2275.82422	-14.84150	1091.39734	2210.69824	-231.33972	1102.47302	2364.69434							99.68017	1227.38977	2239.56982							-352.87076	581.27429	2283.67578	57.71705	628.81708	2168.26733	-352.24893	111.52381	2493.93726	96.97539	119.92539	2121.00610	
10	0.090				-340.28693	1052.35144	2158.06152										-50.66426	1568.43164	2261.18115	-202.50410	1843.23877	2182.76904	-209.30815	1612.53625	2270.37305	-10.92605	1089.86316	2205.79150	-226.79044	1101.94690	2358.84033							104.49428	1226.61877	2235.02124							-350.58295	580.64203	2280.14697	63.17545	627.34021	2163.16016	-351.80936	112.23710	2492.76099	103.57466	118.99900	2113.78833	
11	0.100				-335.89972	1051.17810	2153.87061										-46.14575	1567.41309	2255.99780	-197.51553	1842.28003	2177.28198	-204.82570	1611.62207	2266.10547	-6.48763	1088.80676	2200.55835	-222.77991	1101.53589	2355.18872							109.28183	1225.77673	2231.02319							-347.68155	580.15985	2276.48145	67.66963	626.44110	2158.18823	-351.79053	112.92191	2492.65405	109.58841	118.33445	2106.89966	
12	0.110				-331.37997	1050.01636	2147.35083										-41.38573	1565.85913	2250.72168	-192.65388	1841.35974	2171.90649	-199.84018	1610.30896	2260.17871	-1.85476	1087.00110	2195.98657	-218.05649	1100.82690	2350.64453							114.00616	1224.74780	2225.57031							-344.99438	579.41986	2272.69653	72.19076	625.11890	2152.88208	-351.78973	113.04494	2492.58130	114.49241	118.57125	2101.09985	
13	0.120				-326.60999	1049.07959	2142.55273										-36.54700	1564.80090	2245.12573	-187.11429	1839.98462	2165.56763	-195.07298	1609.63660	2254.38330	3.12392	1086.05151	2189.59326	-213.04190	1098.86536	2343.61987							119.14301	1222.83264	2219.64478							-341.43268	579.04779	2268.39087	77.05538	624.42419	2147.05688	-351.72836	114.05929	2492.43140	119.84703	116.47241	2095.29639	
14	0.130	-307.54507	1725.93494	2102.88062	-321.60355	1047.73682	2136.80615							-331.27795	1554.76099	2180.78149	-31.30734	1563.58032	2239.49658	-182.16046	1839.42810	2160.72119	-189.49886	1608.33496	2248.54443	7.71615	1084.30554	2185.19336	-208.10706	1097.53845	2337.78931							124.27297	1221.74707	2214.06274							-338.16623	578.18964	2264.87793	82.90178	622.81342	2143.65698	-351.23956	115.79807	2491.22241	124.16006	116.71896	2090.86475	
15	0.140	-302.25070	1724.97302	2097.62866	-316.51035	1046.82007	2130.66919							-325.69464	1553.76611	2174.11328	-26.42794	1562.72095	2235.04785				-184.25089	1607.27332	2243.68628													129.73337	1221.40491	2209.88940							-334.73877	577.64874	2260.43848	87.98871	621.70618	2137.34619	-351.16141	116.86238	2491.10498	128.05141	114.87935	2086.47192	
16	0.150	-297.48621	1724.15613	2092.96191	-310.79892	1045.85571	2125.02197							-320.08963	1553.01306	2169.07813	-21.01231	1561.76453	2228.72632				-179.05864	1606.19580	2237.44800													135.11462	1220.02734	2204.46387							-330.82944	577.15240	2256.10938	93.35046	620.33929	2131.21802	-351.26740	118.08443	2490.38721	131.72087	113.89445	2082.80957	
17	0.160	-292.03171	1723.47754	2087.31641	-305.22318	1044.87305	2119.29468							-314.81161	1552.27222	2163.47241	-15.90658	1560.44312	2223.50049				-173.25639	1605.46375	2231.43359													140.69263	1218.93799	2198.64233	24.09412	1081.16516	2166.82910				-327.16879	576.96747	2250.91650	99.33041	618.64459	2126.55737	-351.06824	120.31646	2489.34961	134.64191	111.94326	2079.47290	
18	0.170	-286.83194	1722.71802	2082.52368	-299.18918	1044.31702	2112.93774							-308.53278	1551.94983	2157.43335	-9.65647	1559.21118	2216.82837				-167.51237	1604.97656	2226.06763				-185.10181	1093.95996	2315.50781	-482.91922	1349.36865	1656.04089				146.41423	1217.97107	2193.12183	30.39100	1079.67358	2161.74316				-323.73682	576.80615	2245.88745	104.44547	617.71411	2120.36304	-351.47351	123.17467	2489.04956	137.03273	109.69597	2077.30981	
19	0.180	-281.56943	1722.40845	2077.42847	-292.74533	1043.52686	2106.17798										-4.06956	1559.09277	2211.93701				-161.40950	1603.68481	2218.73608							-482.09509	1356.13281	1647.04370				152.39499	1217.18262	2188.16528	36.62688	1078.84705	2155.50073				-319.46832	576.96490	2240.48267	109.89203	616.61298	2113.18408	-351.38580	125.53355	2488.42163	139.40973	107.24520	2075.14307	
20	0.190	-275.91998	1721.24414	2072.48291	-286.33859	1043.38184	2099.64160										1.63690	1558.15491	2205.61719				-155.20326	1602.92932	2212.73218							-478.60156	1359.32385	1643.21912				158.70409	1216.37268	2182.06787	42.86320	1078.14612	2148.91870				-315.49066	577.12341	2234.10425	115.25603	615.39746	2106.86719	-351.19855	127.94376	2486.86353	139.93906	107.10188	2075.06787	
21	0.200	-269.95706	1720.84497	2066.52710	-279.50327	1042.48877	2092.65942										8.26926	1556.98291	2198.82788				-149.29056	1602.56689	2207.18872							-476.20654	1363.32751	1635.79004				164.55016	1215.23755	2175.96045	49.44331	1077.27759	2143.17139				-311.42914	577.63495	2228.20581	121.31468	613.29517	2102.77100	-351.14548	131.50674	2486.32080	141.26590	105.52004	2073.68579	
